<svg width="52" height="53" viewBox="0 0 52 53" fill="none" xmlns="http://www.w3.org/2000/svg">
<g clip-path="url(#clip0_868_22386)">
<path d="M26.6133 42.2784C27.3066 41.5851 27.3066 40.3875 26.6133 39.6942C25.9199 39.0009 24.7224 39.0009 24.0291 39.6942L17.0959 46.6274C15.0161 48.7072 12.0537 49.4634 9.09145 48.5811C8.71336 48.4549 8.33527 48.3291 7.9572 48.1397C2.97833 45.4926 2.28504 39.1271 5.94012 35.4713L17.6 23.8114C19.1128 22.2987 21.0666 21.4796 23.2094 21.4796C25.3522 21.4796 27.3059 22.2991 28.8187 23.8114C29.0707 24.0634 29.323 24.3786 29.5749 24.6309C30.2054 25.5133 31.4658 25.6395 32.2848 24.8828L32.3477 24.82C32.9781 24.1895 33.041 23.2443 32.5368 22.4881C32.2215 22.0467 31.8434 21.6058 31.4654 21.2277C29.1335 18.8958 25.9189 17.635 22.5785 17.8873C19.6791 18.0763 16.9692 19.4 14.9521 21.4167L3.35633 32.8875C-1.11878 37.3626 -1.11878 44.7365 3.35633 49.2113C5.56248 51.4175 8.46136 52.6145 11.5499 52.6145C14.6384 52.6145 17.5373 51.4169 19.7434 49.2113L26.6133 42.2784Z" fill="#6F6FE9"/>
<path opacity="0.4" d="M25.2888 11.0797L32.1585 4.20995C34.1756 2.19288 36.7594 0.932464 39.5326 0.680584C43.5663 0.365361 47.411 2.13008 49.869 5.47048C50.9404 6.98323 51.6337 8.68472 51.8861 10.5127C52.3903 14.2312 51.1928 17.8239 48.6086 20.4081L37.0117 32.005C34.8056 34.2111 31.9067 35.4082 28.8181 35.4082C25.7296 35.4082 22.8307 34.2105 20.6246 32.005C20.3094 31.6897 19.9941 31.3745 19.7422 30.9964C19.1751 30.3031 19.238 29.2317 19.9313 28.6013C20.6875 27.8451 21.9484 27.908 22.6412 28.7275C22.8302 28.9794 23.0193 29.1689 23.2716 29.4208C24.7844 30.9336 26.7382 31.7527 28.881 31.7527C30.9609 31.7527 32.9775 30.9332 34.4904 29.4208L45.9612 17.95C47.3478 16.5634 48.2301 14.7987 48.4192 12.9078C48.6711 9.75644 47.0954 6.73128 44.1336 5.15562C43.7556 4.96657 43.3775 4.77753 42.9994 4.65135C40.0371 3.769 37.012 4.52518 34.932 6.60506L27.8731 13.6639C27.1798 14.3572 25.9822 14.3572 25.2889 13.6639C24.5952 12.9077 24.5955 11.773 25.2888 11.0797Z" fill="#6F6FE9"/>
</g>
<defs>
<clipPath id="clip0_868_22386">
<rect width="52" height="52" fill="white" transform="translate(0 0.636719)"/>
</clipPath>
</defs>
</svg>
