<svg width="52" height="52" viewBox="0 0 52 52" fill="none" xmlns="http://www.w3.org/2000/svg">
<path fill-rule="evenodd" clip-rule="evenodd" d="M40.9974 19.5371H50.0569C51.1291 19.5371 51.9983 20.361 51.9983 21.3773V27.774C51.9858 28.7854 51.1239 29.6023 50.0569 29.6142H41.2054C38.6207 29.6471 36.3605 27.9697 35.7743 25.5833C35.4807 24.102 35.8928 22.5734 36.9002 21.4072C37.9077 20.241 39.4074 19.5565 40.9974 19.5371ZM41.3899 26.2642H42.245C43.3427 26.2642 44.2326 25.4207 44.2326 24.3802C44.2326 23.3397 43.3427 22.4962 42.245 22.4962H41.3899C40.8649 22.4904 40.3593 22.684 39.9859 23.0338C39.6124 23.3836 39.4023 23.8606 39.4023 24.3583C39.4023 25.4024 40.2885 26.2521 41.3899 26.2642Z" fill="#6F6FE9" fill-opacity="0.4"/>
<path d="M40.9991 15.77H52C52 7.18263 46.7075 2.16602 37.7404 2.16602H14.2596C5.29244 2.16602 0 7.18263 0 15.6605V34.1716C0 42.6494 5.29244 47.666 14.2596 47.666H37.7404C46.7075 47.666 52 42.6494 52 34.1716V33.3829H40.9991C35.8935 33.3829 31.7547 29.4597 31.7547 24.6203C31.7547 19.7808 35.8935 15.8576 40.9991 15.8576V15.77Z" fill="#6F6FE9"/>
<path d="M26.9932 15.7679H12.3176C11.2162 15.7559 10.33 14.9062 10.3301 13.8621C10.3427 12.8301 11.2289 11.9999 12.3176 12H26.9932C28.0909 12 28.9807 12.8435 28.9807 13.884C28.9807 14.9245 28.0909 15.7679 26.9932 15.7679Z" fill="#6F6FE9"/>
</svg>
