<svg width="52" height="52" viewBox="0 0 52 52" fill="none" xmlns="http://www.w3.org/2000/svg">
<path d="M41.7396 2.64333L30.8678 18.7778C30.7139 19.0101 30.6491 19.2902 30.6854 19.5665C30.7217 19.8428 30.8566 20.0967 31.0654 20.2814C31.2741 20.4661 31.5425 20.5691 31.8212 20.5715C32.0998 20.5739 32.37 20.4755 32.5819 20.2944L43.2852 11.0211C43.3481 10.9681 43.4247 10.9341 43.5062 10.923C43.5877 10.912 43.6707 10.9244 43.7454 10.9587C43.8201 10.993 43.8835 11.0479 43.9282 11.1169C43.9729 11.186 43.997 11.2663 43.9978 11.3485V40.4059C43.997 40.4946 43.9691 40.5808 43.9177 40.6531C43.8664 40.7254 43.7941 40.7802 43.7107 40.8101C43.6273 40.84 43.5366 40.8436 43.4511 40.8204C43.3655 40.7972 43.2891 40.7483 43.2322 40.6804L10.9007 1.95963C10.3797 1.34555 9.73122 0.852206 9.0004 0.513817C8.26958 0.175427 7.47388 0.000100144 6.66852 2.16052e-08H5.54185C4.07206 2.16052e-08 2.66247 0.583872 1.62317 1.62317C0.583872 2.66247 0 4.07206 0 5.54185V46.4678C0.00255104 47.9359 0.58755 49.343 1.62657 50.3802C2.66559 51.4175 4.07373 52 5.54185 52C6.48883 52.0001 7.41998 51.7571 8.24615 51.2943C9.07233 50.8314 9.76587 50.1643 10.2604 49.3567L21.1322 33.2222C21.2861 32.9899 21.3509 32.7098 21.3146 32.4335C21.2783 32.1572 21.1434 31.9033 20.9346 31.7186C20.7259 31.5339 20.4575 31.4309 20.1788 31.4285C19.9002 31.4261 19.63 31.5245 19.4181 31.7056L8.71481 40.9789C8.65194 41.0319 8.57528 41.0659 8.49379 41.077C8.4123 41.088 8.32935 41.0756 8.25462 41.0413C8.1799 41.007 8.11648 40.9521 8.07179 40.8831C8.0271 40.814 8.00297 40.7337 8.00222 40.6515V11.5941C8.00299 11.5054 8.03093 11.4192 8.08226 11.3469C8.1336 11.2746 8.20586 11.2198 8.28931 11.1899C8.37275 11.16 8.46337 11.1564 8.54892 11.1796C8.63448 11.2028 8.71087 11.2517 8.76778 11.3196L41.0993 50.0404C41.6203 50.6544 42.2688 51.1478 42.9996 51.4862C43.7304 51.8246 44.5261 51.9999 45.3315 52H46.4582C47.9279 52 49.3375 51.4161 50.3768 50.3768C51.4161 49.3375 52 47.9279 52 46.4582V5.53222C51.9975 4.0641 51.4125 2.65698 50.3734 1.61977C49.3344 0.582548 47.9263 -2.19476e-06 46.4582 2.16052e-08C45.5112 -8.36597e-05 44.58 0.242919 43.7538 0.705745C42.9277 1.16857 42.2341 1.83572 41.7396 2.64333Z" fill="url(#paint0_linear_868_22376)"/>
<defs>
<linearGradient id="paint0_linear_868_22376" x1="26" y1="0" x2="26" y2="52" gradientUnits="userSpaceOnUse">
<stop stop-color="#6F6FE9"/>
<stop offset="1" stop-color="#6F6FE9" stop-opacity="0.4"/>
</linearGradient>
</defs>
</svg>
