<svg width="52" height="52" viewBox="0 0 52 52" fill="none" xmlns="http://www.w3.org/2000/svg">
<path fill-rule="evenodd" clip-rule="evenodd" d="M40.9954 19.5371H50.055C51.1271 19.5371 51.9963 20.361 51.9963 21.3773V27.774C51.9838 28.7854 51.1219 29.6023 50.055 29.6142H41.2034C38.6187 29.6471 36.3586 27.9697 35.7723 25.5833C35.4787 24.102 35.8909 22.5734 36.8983 21.4072C37.9057 20.241 39.4054 19.5565 40.9954 19.5371ZM41.3879 26.2642H42.243C43.3407 26.2642 44.2306 25.4207 44.2306 24.3802C44.2306 23.3397 43.3407 22.4962 42.243 22.4962H41.3879C40.8629 22.4904 40.3573 22.684 39.9839 23.0338C39.6105 23.3836 39.4004 23.8606 39.4004 24.3583C39.4003 25.4024 40.2865 26.2521 41.3879 26.2642Z" fill="white" fill-opacity="0.4"/>
<path d="M40.9991 15.77H52C52 7.18263 46.7075 2.16602 37.7404 2.16602H14.2596C5.29244 2.16602 0 7.18263 0 15.6605V34.1716C0 42.6494 5.29244 47.666 14.2596 47.666H37.7404C46.7075 47.666 52 42.6494 52 34.1716V33.3829H40.9991C35.8935 33.3829 31.7547 29.4597 31.7547 24.6203C31.7547 19.7808 35.8935 15.8576 40.9991 15.8576V15.77Z" fill="white"/>
<path d="M26.9912 15.7679H12.3157C11.2143 15.7559 10.3281 14.9062 10.3281 13.8621C10.3408 12.8301 11.2269 11.9999 12.3157 12H26.9912C28.0889 12 28.9788 12.8435 28.9788 13.884C28.9788 14.9245 28.0889 15.7679 26.9912 15.7679Z" fill="white"/>
</svg>
